<mxfile host="app.diagrams.net" modified="2022-01-26T19:30:09.666Z" agent="5.0 (Windows NT 10.0; Win64; x64) AppleWebKit/537.36 (KHTML, like Gecko) Chrome/97.0.4692.99 Safari/537.36" etag="P0e5JcXUilipv6krfrRq" version="16.4.7" type="github">
  <diagram id="C5RBs43oDa-KdzZeNtuy" name="Page-1">
    <mxGraphModel dx="2037" dy="1110" grid="1" gridSize="10" guides="1" tooltips="1" connect="1" arrows="1" fold="1" page="1" pageScale="1" pageWidth="827" pageHeight="1169" math="0" shadow="0">
      <root>
        <mxCell id="WIyWlLk6GJQsqaUBKTNV-0" />
        <mxCell id="WIyWlLk6GJQsqaUBKTNV-1" parent="WIyWlLk6GJQsqaUBKTNV-0" />
        <mxCell id="owAq0KQiyDN5g83FiSza-2" style="edgeStyle=orthogonalEdgeStyle;rounded=0;orthogonalLoop=1;jettySize=auto;html=1;" edge="1" parent="WIyWlLk6GJQsqaUBKTNV-1" source="WIyWlLk6GJQsqaUBKTNV-3" target="owAq0KQiyDN5g83FiSza-0">
          <mxGeometry relative="1" as="geometry" />
        </mxCell>
        <mxCell id="WIyWlLk6GJQsqaUBKTNV-3" value="Start.py" style="rounded=1;whiteSpace=wrap;html=1;fontSize=12;glass=0;strokeWidth=1;shadow=0;" parent="WIyWlLk6GJQsqaUBKTNV-1" vertex="1">
          <mxGeometry x="-64" y="100" width="120" height="40" as="geometry" />
        </mxCell>
        <mxCell id="owAq0KQiyDN5g83FiSza-1" style="edgeStyle=orthogonalEdgeStyle;rounded=0;orthogonalLoop=1;jettySize=auto;html=1;exitX=0.5;exitY=1;exitDx=0;exitDy=0;entryX=0.5;entryY=0;entryDx=0;entryDy=0;" edge="1" parent="WIyWlLk6GJQsqaUBKTNV-1" source="owAq0KQiyDN5g83FiSza-0">
          <mxGeometry relative="1" as="geometry">
            <mxPoint x="-10" y="280" as="targetPoint" />
          </mxGeometry>
        </mxCell>
        <mxCell id="owAq0KQiyDN5g83FiSza-7" style="edgeStyle=orthogonalEdgeStyle;rounded=0;orthogonalLoop=1;jettySize=auto;html=1;entryX=0.5;entryY=0;entryDx=0;entryDy=0;" edge="1" parent="WIyWlLk6GJQsqaUBKTNV-1" source="owAq0KQiyDN5g83FiSza-0" target="owAq0KQiyDN5g83FiSza-4">
          <mxGeometry relative="1" as="geometry" />
        </mxCell>
        <mxCell id="owAq0KQiyDN5g83FiSza-20" style="edgeStyle=orthogonalEdgeStyle;rounded=0;orthogonalLoop=1;jettySize=auto;html=1;entryX=0.5;entryY=0;entryDx=0;entryDy=0;fontFamily=Helvetica;fontSize=12;fontColor=default;" edge="1" parent="WIyWlLk6GJQsqaUBKTNV-1" target="owAq0KQiyDN5g83FiSza-19">
          <mxGeometry relative="1" as="geometry">
            <mxPoint x="-10" y="140" as="sourcePoint" />
            <Array as="points">
              <mxPoint x="-10" y="170" />
              <mxPoint x="-380" y="170" />
            </Array>
          </mxGeometry>
        </mxCell>
        <mxCell id="owAq0KQiyDN5g83FiSza-21" style="edgeStyle=orthogonalEdgeStyle;rounded=0;orthogonalLoop=1;jettySize=auto;html=1;fontFamily=Helvetica;fontSize=12;fontColor=default;entryX=0.683;entryY=0;entryDx=0;entryDy=0;entryPerimeter=0;" edge="1" parent="WIyWlLk6GJQsqaUBKTNV-1" source="owAq0KQiyDN5g83FiSza-0" target="owAq0KQiyDN5g83FiSza-19">
          <mxGeometry relative="1" as="geometry">
            <mxPoint x="-260" y="280" as="targetPoint" />
          </mxGeometry>
        </mxCell>
        <mxCell id="owAq0KQiyDN5g83FiSza-47" style="edgeStyle=orthogonalEdgeStyle;rounded=0;orthogonalLoop=1;jettySize=auto;html=1;fontFamily=Helvetica;fontSize=12;fontColor=default;" edge="1" parent="WIyWlLk6GJQsqaUBKTNV-1" source="owAq0KQiyDN5g83FiSza-0" target="owAq0KQiyDN5g83FiSza-46">
          <mxGeometry relative="1" as="geometry" />
        </mxCell>
        <mxCell id="owAq0KQiyDN5g83FiSza-52" style="edgeStyle=orthogonalEdgeStyle;rounded=0;orthogonalLoop=1;jettySize=auto;html=1;fontFamily=Helvetica;fontSize=12;fontColor=default;" edge="1" parent="WIyWlLk6GJQsqaUBKTNV-1" source="owAq0KQiyDN5g83FiSza-0" target="owAq0KQiyDN5g83FiSza-51">
          <mxGeometry relative="1" as="geometry" />
        </mxCell>
        <mxCell id="owAq0KQiyDN5g83FiSza-0" value="Main Window" style="rounded=1;whiteSpace=wrap;html=1;strokeWidth=3;" vertex="1" parent="WIyWlLk6GJQsqaUBKTNV-1">
          <mxGeometry x="-65" y="200" width="120" height="60" as="geometry" />
        </mxCell>
        <mxCell id="owAq0KQiyDN5g83FiSza-12" style="edgeStyle=orthogonalEdgeStyle;rounded=0;orthogonalLoop=1;jettySize=auto;html=1;entryX=0.5;entryY=0;entryDx=0;entryDy=0;exitX=0.5;exitY=1;exitDx=0;exitDy=0;" edge="1" parent="WIyWlLk6GJQsqaUBKTNV-1" source="owAq0KQiyDN5g83FiSza-4" target="owAq0KQiyDN5g83FiSza-5">
          <mxGeometry relative="1" as="geometry" />
        </mxCell>
        <mxCell id="owAq0KQiyDN5g83FiSza-13" style="edgeStyle=orthogonalEdgeStyle;rounded=0;orthogonalLoop=1;jettySize=auto;html=1;entryX=0.5;entryY=0;entryDx=0;entryDy=0;" edge="1" parent="WIyWlLk6GJQsqaUBKTNV-1" source="owAq0KQiyDN5g83FiSza-4" target="owAq0KQiyDN5g83FiSza-8">
          <mxGeometry relative="1" as="geometry" />
        </mxCell>
        <mxCell id="owAq0KQiyDN5g83FiSza-4" value="Sequenz Window" style="rounded=1;whiteSpace=wrap;html=1;strokeWidth=3;" vertex="1" parent="WIyWlLk6GJQsqaUBKTNV-1">
          <mxGeometry x="310" y="280" width="120" height="60" as="geometry" />
        </mxCell>
        <mxCell id="owAq0KQiyDN5g83FiSza-16" style="edgeStyle=orthogonalEdgeStyle;rounded=0;orthogonalLoop=1;jettySize=auto;html=1;entryX=0.5;entryY=0;entryDx=0;entryDy=0;" edge="1" parent="WIyWlLk6GJQsqaUBKTNV-1" source="owAq0KQiyDN5g83FiSza-5" target="owAq0KQiyDN5g83FiSza-15">
          <mxGeometry relative="1" as="geometry">
            <Array as="points">
              <mxPoint x="290" y="570" />
              <mxPoint x="370" y="570" />
            </Array>
          </mxGeometry>
        </mxCell>
        <mxCell id="owAq0KQiyDN5g83FiSza-5" value="generate new Sequenz" style="rounded=0;whiteSpace=wrap;html=1;" vertex="1" parent="WIyWlLk6GJQsqaUBKTNV-1">
          <mxGeometry x="230" y="390" width="120" height="60" as="geometry" />
        </mxCell>
        <mxCell id="owAq0KQiyDN5g83FiSza-18" style="edgeStyle=orthogonalEdgeStyle;rounded=0;orthogonalLoop=1;jettySize=auto;html=1;exitX=0.5;exitY=1;exitDx=0;exitDy=0;entryX=0.5;entryY=0;entryDx=0;entryDy=0;" edge="1" parent="WIyWlLk6GJQsqaUBKTNV-1" source="owAq0KQiyDN5g83FiSza-8" target="owAq0KQiyDN5g83FiSza-14">
          <mxGeometry relative="1" as="geometry" />
        </mxCell>
        <mxCell id="owAq0KQiyDN5g83FiSza-8" value="load Sequenz" style="rounded=0;whiteSpace=wrap;html=1;" vertex="1" parent="WIyWlLk6GJQsqaUBKTNV-1">
          <mxGeometry x="390" y="390" width="120" height="60" as="geometry" />
        </mxCell>
        <mxCell id="owAq0KQiyDN5g83FiSza-17" style="edgeStyle=orthogonalEdgeStyle;rounded=0;orthogonalLoop=1;jettySize=auto;html=1;entryX=0.5;entryY=0;entryDx=0;entryDy=0;" edge="1" parent="WIyWlLk6GJQsqaUBKTNV-1" source="owAq0KQiyDN5g83FiSza-14" target="owAq0KQiyDN5g83FiSza-15">
          <mxGeometry relative="1" as="geometry">
            <mxPoint x="370" y="560" as="targetPoint" />
            <Array as="points">
              <mxPoint x="450" y="570" />
              <mxPoint x="370" y="570" />
            </Array>
          </mxGeometry>
        </mxCell>
        <mxCell id="owAq0KQiyDN5g83FiSza-14" value="Do changes as nessesery" style="rounded=0;whiteSpace=wrap;html=1;" vertex="1" parent="WIyWlLk6GJQsqaUBKTNV-1">
          <mxGeometry x="390" y="480" width="120" height="60" as="geometry" />
        </mxCell>
        <mxCell id="owAq0KQiyDN5g83FiSza-15" value="Save parameter to experiment strukture" style="rounded=1;whiteSpace=wrap;html=1;gradientColor=none;" vertex="1" parent="WIyWlLk6GJQsqaUBKTNV-1">
          <mxGeometry x="310" y="600" width="120" height="60" as="geometry" />
        </mxCell>
        <mxCell id="owAq0KQiyDN5g83FiSza-27" style="edgeStyle=orthogonalEdgeStyle;rounded=0;orthogonalLoop=1;jettySize=auto;html=1;entryX=0.5;entryY=0;entryDx=0;entryDy=0;fontFamily=Helvetica;fontSize=12;fontColor=default;" edge="1" parent="WIyWlLk6GJQsqaUBKTNV-1" source="owAq0KQiyDN5g83FiSza-19" target="owAq0KQiyDN5g83FiSza-22">
          <mxGeometry relative="1" as="geometry" />
        </mxCell>
        <mxCell id="owAq0KQiyDN5g83FiSza-28" style="edgeStyle=orthogonalEdgeStyle;rounded=0;orthogonalLoop=1;jettySize=auto;html=1;entryX=0.5;entryY=0;entryDx=0;entryDy=0;fontFamily=Helvetica;fontSize=12;fontColor=default;" edge="1" parent="WIyWlLk6GJQsqaUBKTNV-1" source="owAq0KQiyDN5g83FiSza-19" target="owAq0KQiyDN5g83FiSza-24">
          <mxGeometry relative="1" as="geometry" />
        </mxCell>
        <mxCell id="owAq0KQiyDN5g83FiSza-19" value="Experiment Filehandler" style="rounded=1;whiteSpace=wrap;html=1;strokeWidth=3;" vertex="1" parent="WIyWlLk6GJQsqaUBKTNV-1">
          <mxGeometry x="-440" y="280" width="120" height="60" as="geometry" />
        </mxCell>
        <mxCell id="owAq0KQiyDN5g83FiSza-29" style="edgeStyle=orthogonalEdgeStyle;rounded=0;orthogonalLoop=1;jettySize=auto;html=1;fontFamily=Helvetica;fontSize=12;fontColor=default;" edge="1" parent="WIyWlLk6GJQsqaUBKTNV-1" source="owAq0KQiyDN5g83FiSza-22">
          <mxGeometry relative="1" as="geometry">
            <mxPoint x="-380" y="510" as="targetPoint" />
            <Array as="points">
              <mxPoint x="-460" y="480" />
              <mxPoint x="-380" y="480" />
            </Array>
          </mxGeometry>
        </mxCell>
        <mxCell id="owAq0KQiyDN5g83FiSza-22" value="generate new Sequenz" style="rounded=0;whiteSpace=wrap;html=1;" vertex="1" parent="WIyWlLk6GJQsqaUBKTNV-1">
          <mxGeometry x="-520" y="390" width="120" height="60" as="geometry" />
        </mxCell>
        <mxCell id="owAq0KQiyDN5g83FiSza-23" style="edgeStyle=orthogonalEdgeStyle;rounded=0;orthogonalLoop=1;jettySize=auto;html=1;exitX=0.5;exitY=1;exitDx=0;exitDy=0;entryX=0.5;entryY=0;entryDx=0;entryDy=0;" edge="1" parent="WIyWlLk6GJQsqaUBKTNV-1" source="owAq0KQiyDN5g83FiSza-24" target="owAq0KQiyDN5g83FiSza-26">
          <mxGeometry relative="1" as="geometry">
            <mxPoint x="-300" y="480" as="targetPoint" />
          </mxGeometry>
        </mxCell>
        <mxCell id="owAq0KQiyDN5g83FiSza-24" value="load Sequenz" style="rounded=0;whiteSpace=wrap;html=1;" vertex="1" parent="WIyWlLk6GJQsqaUBKTNV-1">
          <mxGeometry x="-360" y="390" width="120" height="60" as="geometry" />
        </mxCell>
        <mxCell id="owAq0KQiyDN5g83FiSza-26" value="Set and save Structure" style="rounded=1;whiteSpace=wrap;html=1;gradientColor=none;" vertex="1" parent="WIyWlLk6GJQsqaUBKTNV-1">
          <mxGeometry x="-440" y="510" width="120" height="60" as="geometry" />
        </mxCell>
        <mxCell id="owAq0KQiyDN5g83FiSza-48" style="edgeStyle=orthogonalEdgeStyle;rounded=0;orthogonalLoop=1;jettySize=auto;html=1;entryX=0.5;entryY=0;entryDx=0;entryDy=0;fontFamily=Helvetica;fontSize=12;fontColor=default;exitX=0.5;exitY=1;exitDx=0;exitDy=0;" edge="1" parent="WIyWlLk6GJQsqaUBKTNV-1" source="owAq0KQiyDN5g83FiSza-30" target="owAq0KQiyDN5g83FiSza-46">
          <mxGeometry relative="1" as="geometry" />
        </mxCell>
        <mxCell id="owAq0KQiyDN5g83FiSza-30" value="RUN experiment" style="ellipse;whiteSpace=wrap;html=1;rounded=1;fontFamily=Helvetica;fontSize=12;fontColor=default;strokeColor=default;strokeWidth=3;fillColor=default;gradientColor=none;" vertex="1" parent="WIyWlLk6GJQsqaUBKTNV-1">
          <mxGeometry x="-70" y="620" width="120" height="80" as="geometry" />
        </mxCell>
        <mxCell id="owAq0KQiyDN5g83FiSza-40" style="edgeStyle=orthogonalEdgeStyle;rounded=0;orthogonalLoop=1;jettySize=auto;html=1;entryX=0.5;entryY=0;entryDx=0;entryDy=0;fontFamily=Helvetica;fontSize=12;fontColor=default;" edge="1" parent="WIyWlLk6GJQsqaUBKTNV-1" source="owAq0KQiyDN5g83FiSza-35" target="owAq0KQiyDN5g83FiSza-36">
          <mxGeometry relative="1" as="geometry" />
        </mxCell>
        <mxCell id="owAq0KQiyDN5g83FiSza-41" style="edgeStyle=orthogonalEdgeStyle;rounded=0;orthogonalLoop=1;jettySize=auto;html=1;entryX=0.5;entryY=0;entryDx=0;entryDy=0;fontFamily=Helvetica;fontSize=12;fontColor=default;" edge="1" parent="WIyWlLk6GJQsqaUBKTNV-1" source="owAq0KQiyDN5g83FiSza-35" target="owAq0KQiyDN5g83FiSza-38">
          <mxGeometry relative="1" as="geometry" />
        </mxCell>
        <mxCell id="owAq0KQiyDN5g83FiSza-35" value="Experiment settings" style="rounded=1;whiteSpace=wrap;html=1;fontFamily=Helvetica;fontSize=12;fontColor=default;strokeColor=default;strokeWidth=3;fillColor=default;gradientColor=none;" vertex="1" parent="WIyWlLk6GJQsqaUBKTNV-1">
          <mxGeometry x="-62" y="280" width="120" height="60" as="geometry" />
        </mxCell>
        <mxCell id="owAq0KQiyDN5g83FiSza-42" style="edgeStyle=orthogonalEdgeStyle;rounded=0;orthogonalLoop=1;jettySize=auto;html=1;entryX=0.5;entryY=0;entryDx=0;entryDy=0;fontFamily=Helvetica;fontSize=12;fontColor=default;" edge="1" parent="WIyWlLk6GJQsqaUBKTNV-1" source="owAq0KQiyDN5g83FiSza-36" target="owAq0KQiyDN5g83FiSza-30">
          <mxGeometry relative="1" as="geometry">
            <Array as="points">
              <mxPoint x="-85" y="570" />
              <mxPoint x="-10" y="570" />
            </Array>
          </mxGeometry>
        </mxCell>
        <mxCell id="owAq0KQiyDN5g83FiSza-36" value="generate new Sequenz" style="rounded=0;whiteSpace=wrap;html=1;" vertex="1" parent="WIyWlLk6GJQsqaUBKTNV-1">
          <mxGeometry x="-145" y="390" width="120" height="60" as="geometry" />
        </mxCell>
        <mxCell id="owAq0KQiyDN5g83FiSza-37" style="edgeStyle=orthogonalEdgeStyle;rounded=0;orthogonalLoop=1;jettySize=auto;html=1;exitX=0.5;exitY=1;exitDx=0;exitDy=0;entryX=0.5;entryY=0;entryDx=0;entryDy=0;" edge="1" parent="WIyWlLk6GJQsqaUBKTNV-1" source="owAq0KQiyDN5g83FiSza-38" target="owAq0KQiyDN5g83FiSza-39">
          <mxGeometry relative="1" as="geometry" />
        </mxCell>
        <mxCell id="owAq0KQiyDN5g83FiSza-38" value="load Sequenz" style="rounded=0;whiteSpace=wrap;html=1;" vertex="1" parent="WIyWlLk6GJQsqaUBKTNV-1">
          <mxGeometry x="15" y="390" width="120" height="60" as="geometry" />
        </mxCell>
        <mxCell id="owAq0KQiyDN5g83FiSza-45" value="" style="edgeStyle=orthogonalEdgeStyle;rounded=0;orthogonalLoop=1;jettySize=auto;html=1;fontFamily=Helvetica;fontSize=12;fontColor=default;" edge="1" parent="WIyWlLk6GJQsqaUBKTNV-1" source="owAq0KQiyDN5g83FiSza-39" target="owAq0KQiyDN5g83FiSza-30">
          <mxGeometry relative="1" as="geometry">
            <Array as="points">
              <mxPoint x="75" y="570" />
              <mxPoint x="-10" y="570" />
            </Array>
          </mxGeometry>
        </mxCell>
        <mxCell id="owAq0KQiyDN5g83FiSza-39" value="Do changes as nessesery" style="rounded=0;whiteSpace=wrap;html=1;" vertex="1" parent="WIyWlLk6GJQsqaUBKTNV-1">
          <mxGeometry x="15" y="480" width="120" height="60" as="geometry" />
        </mxCell>
        <mxCell id="owAq0KQiyDN5g83FiSza-46" value="Visualisation of data" style="rounded=1;whiteSpace=wrap;html=1;fontFamily=Helvetica;fontSize=12;fontColor=default;strokeColor=default;strokeWidth=1;fillColor=default;gradientColor=none;" vertex="1" parent="WIyWlLk6GJQsqaUBKTNV-1">
          <mxGeometry x="-240" y="740" width="120" height="60" as="geometry" />
        </mxCell>
        <mxCell id="owAq0KQiyDN5g83FiSza-51" value="Save and Close&amp;nbsp;" style="rounded=1;whiteSpace=wrap;html=1;fontFamily=Helvetica;fontSize=12;fontColor=default;strokeColor=default;strokeWidth=1;fillColor=default;gradientColor=none;" vertex="1" parent="WIyWlLk6GJQsqaUBKTNV-1">
          <mxGeometry x="130" y="720" width="120" height="60" as="geometry" />
        </mxCell>
      </root>
    </mxGraphModel>
  </diagram>
</mxfile>
